<?xml version="1.0" encoding="utf-8"?>
<svg viewBox="1.508 80.488 394.876 202.082" xmlns="http://www.w3.org/2000/svg">
  <path d="M 204.555 245.871 C 205.768 258.065 207.875 269.898 210.875 281.371 C 210.973 281.745 210.692 282.111 210.305 282.111 L 187.265 282.111 C 186.732 282.111 186.532 281.855 186.665 281.341 C 189.705 269.268 191.858 257.278 193.125 245.371 C 193.148 245.126 192.897 244.948 192.673 245.05 C 192.632 245.069 192.595 245.097 192.565 245.131 C 185.825 253.041 174.625 257.471 164.005 256.881 C 153.072 256.281 144.335 251.561 137.795 242.721 C 129.365 231.331 130.085 214.611 135.025 201.911 C 140.475 187.871 152.545 174.661 164.185 165.281 C 175.455 156.181 187.345 147.041 198.475 137.171 C 198.642 137.025 198.808 137.025 198.975 137.171 C 208.142 145.098 217.378 152.658 226.685 159.851 C 237.365 168.105 246.215 176.758 253.235 185.811 C 260.855 195.651 265.105 206.578 265.985 218.591 C 266.492 225.465 265.532 231.538 263.105 236.811 C 257.795 248.341 246.975 255.891 234.345 256.861 C 223.185 257.711 212.325 253.731 205.175 245.601 C 204.688 245.041 204.482 245.131 204.555 245.871 Z" style="fill: rgb(255, 255, 255);"/>
  <g id="g-1" transform="matrix(1, 0, 0, 1, 169.655184, -78.499757)"/>
  <g id="svgg" transform="matrix(0.48687, -0.071009, 0.135295, 0.539246, 134.757904, 17.525887)" style="transform-origin: 197.729px 156.627px;">
    <path id="path0" d="M 316.745 12.089 C 255.17 55.939 202.271 80.13 108.614 107.267 C 92.959 111.803 79.278 115.806 78.213 116.162 C 76.805 116.632 36.931 127.017 38.416 128.785 C 70.437 166.92 88.992 222.603 39.273 268.285 C 32.253 274.735 18.542 305.875 26.54 301.918 C 63.129 283.815 115.637 179.712 91.992 133.052 C 87.524 124.234 87.84 123.449 94.705 126.317 C 129.668 140.926 189.549 138.719 234.688 121.159 C 285.141 101.531 323.944 60.256 333.379 16.179 C 337.243 -1.875 336.583 -2.037 316.745 12.089 M 339.436 106.188 C 334.932 113.477 292.888 136.66 272.665 143.006 C 238.869 153.612 177.666 154.288 120.225 144.691 C 107.554 142.573 107.25 142.989 115.748 150.822 C 186.227 215.787 311.638 193.583 340.782 110.98 C 342.66 105.659 341.755 102.437 339.436 106.188 M 118.218 189.999 C 119.946 193.386 125.546 200.632 130.663 206.103 C 179.704 258.528 255.733 265.951 296.565 222.302 C 307.783 210.31 307.838 209.126 297.004 212.898 C 249.461 229.451 207.827 224.637 139.884 194.732 C 128.453 189.701 118.196 185.192 117.089 184.713 C 115.742 184.13 116.115 185.876 118.218 189.999 M 115.356 226.658 C 115.356 230.967 130.402 251.48 139.969 260.213 C 169.053 286.764 203.504 293.533 225.843 277.087 C 234.586 270.651 234.039 270.104 219.612 270.861 C 191.718 272.325 165.362 260.775 118.178 226.409 C 115.746 224.638 115.356 224.672 115.356 226.658 M 105.55 259.948 C 115.794 293.986 153.481 320.795 173.067 307.977 L 177.474 305.094 L 168.713 303.104 C 152.562 299.436 143.128 293.176 122.571 272.488 C 103.669 253.467 103.579 253.4 105.55 259.948" stroke="none" fill-rule="evenodd" style="fill: rgb(255, 255, 255);"/>
  </g>
  <g id="g-2" transform="matrix(-0.48687, -0.071009, -0.135295, 0.539246, -132.286621, 17.17564)" style="transform-origin: 197.729px 156.627px;">
    <path id="path-1" d="M 316.745 12.089 C 255.17 55.939 202.271 80.13 108.614 107.267 C 92.959 111.803 79.278 115.806 78.213 116.162 C 76.805 116.632 36.931 127.017 38.416 128.785 C 70.437 166.92 88.992 222.603 39.273 268.285 C 32.253 274.735 18.542 305.875 26.54 301.918 C 63.129 283.815 115.637 179.712 91.992 133.052 C 87.524 124.234 87.84 123.449 94.705 126.317 C 129.668 140.926 189.549 138.719 234.688 121.159 C 285.141 101.531 323.944 60.256 333.379 16.179 C 337.243 -1.875 336.583 -2.037 316.745 12.089 M 339.436 106.188 C 334.932 113.477 292.888 136.66 272.665 143.006 C 238.869 153.612 177.666 154.288 120.225 144.691 C 107.554 142.573 107.25 142.989 115.748 150.822 C 186.227 215.787 311.638 193.583 340.782 110.98 C 342.66 105.659 341.755 102.437 339.436 106.188 M 118.218 189.999 C 119.946 193.386 125.546 200.632 130.663 206.103 C 179.704 258.528 255.733 265.951 296.565 222.302 C 307.783 210.31 307.838 209.126 297.004 212.898 C 249.461 229.451 207.827 224.637 139.884 194.732 C 128.453 189.701 118.196 185.192 117.089 184.713 C 115.742 184.13 116.115 185.876 118.218 189.999 M 115.356 226.658 C 115.356 230.967 130.402 251.48 139.969 260.213 C 169.053 286.764 203.504 293.533 225.843 277.087 C 234.586 270.651 234.039 270.104 219.612 270.861 C 191.718 272.325 165.362 260.775 118.178 226.409 C 115.746 224.638 115.356 224.672 115.356 226.658 M 105.55 259.948 C 115.794 293.986 153.481 320.795 173.067 307.977 L 177.474 305.094 L 168.713 303.104 C 152.562 299.436 143.128 293.176 122.571 272.488 C 103.669 253.467 103.579 253.4 105.55 259.948" stroke="none" fill-rule="evenodd" style="fill: rgb(255, 255, 255);"/>
  </g>
</svg>