<?xml version="1.0" encoding="utf-8"?>
<svg viewBox="11 1 395.487 202.494" xmlns="http://www.w3.org/2000/svg">
  <path d="M 214.619 166.855 C 215.832 179.049 217.939 190.882 220.939 202.355 C 221.037 202.729 220.756 203.095 220.369 203.095 L 197.329 203.095 C 196.796 203.095 196.596 202.839 196.729 202.325 C 199.769 190.252 201.922 178.262 203.189 166.355 C 203.212 166.11 202.961 165.932 202.737 166.034 C 202.696 166.053 202.659 166.081 202.629 166.115 C 195.889 174.025 184.689 178.455 174.069 177.865 C 163.136 177.265 154.399 172.545 147.859 163.705 C 139.429 152.315 140.149 135.595 145.089 122.895 C 150.539 108.855 162.609 95.645 174.249 86.265 C 185.519 77.165 197.409 68.025 208.539 58.155 C 208.706 58.009 208.872 58.009 209.039 58.155 C 218.206 66.082 227.442 73.642 236.749 80.835 C 247.429 89.089 256.279 97.742 263.299 106.795 C 270.919 116.635 275.169 127.562 276.049 139.575 C 276.556 146.449 275.596 152.522 273.169 157.795 C 267.859 169.325 257.039 176.875 244.409 177.845 C 233.249 178.695 222.389 174.715 215.239 166.585 C 214.752 166.025 214.546 166.115 214.619 166.855 Z" style="fill: rgb(255, 0, 0);"/>
  <g id="g-1" transform="matrix(1, 0, 0, 1, 198.71904, -157.516724)"/>
  <g id="svgg" transform="matrix(0.48687, -0.071009, 0.135295, 0.539246, 144.821762, -61.491077)" style="transform-origin: 197.729px 156.627px;">
    <path id="path0" d="M 316.745 12.089 C 255.17 55.939 202.271 80.13 108.614 107.267 C 92.959 111.803 79.278 115.806 78.213 116.162 C 76.805 116.632 36.931 127.017 38.416 128.785 C 70.437 166.92 88.992 222.603 39.273 268.285 C 32.253 274.735 18.542 305.875 26.54 301.918 C 63.129 283.815 115.637 179.712 91.992 133.052 C 87.524 124.234 87.84 123.449 94.705 126.317 C 129.668 140.926 189.549 138.719 234.688 121.159 C 285.141 101.531 323.944 60.256 333.379 16.179 C 337.243 -1.875 336.583 -2.037 316.745 12.089 M 339.436 106.188 C 334.932 113.477 292.888 136.66 272.665 143.006 C 238.869 153.612 177.666 154.288 120.225 144.691 C 107.554 142.573 107.25 142.989 115.748 150.822 C 186.227 215.787 311.638 193.583 340.782 110.98 C 342.66 105.659 341.755 102.437 339.436 106.188 M 118.218 189.999 C 119.946 193.386 125.546 200.632 130.663 206.103 C 179.704 258.528 255.733 265.951 296.565 222.302 C 307.783 210.31 307.838 209.126 297.004 212.898 C 249.461 229.451 207.827 224.637 139.884 194.732 C 128.453 189.701 118.196 185.192 117.089 184.713 C 115.742 184.13 116.115 185.876 118.218 189.999 M 115.356 226.658 C 115.356 230.967 130.402 251.48 139.969 260.213 C 169.053 286.764 203.504 293.533 225.843 277.087 C 234.586 270.651 234.039 270.104 219.612 270.861 C 191.718 272.325 165.362 260.775 118.178 226.409 C 115.746 224.638 115.356 224.672 115.356 226.658 M 105.55 259.948 C 115.794 293.986 153.481 320.795 173.067 307.977 L 177.474 305.094 L 168.713 303.104 C 152.562 299.436 143.128 293.176 122.571 272.488 C 103.669 253.467 103.579 253.4 105.55 259.948" stroke="none" fill-rule="evenodd" style="fill: rgb(255, 0, 0);"/>
  </g>
  <g id="g-2" transform="matrix(-0.48687, -0.071009, -0.135295, 0.539246, -122.222763, -61.84132)" style="transform-origin: 197.729px 156.627px;">
    <path id="path-1" d="M 316.745 12.089 C 255.17 55.939 202.271 80.13 108.614 107.267 C 92.959 111.803 79.278 115.806 78.213 116.162 C 76.805 116.632 36.931 127.017 38.416 128.785 C 70.437 166.92 88.992 222.603 39.273 268.285 C 32.253 274.735 18.542 305.875 26.54 301.918 C 63.129 283.815 115.637 179.712 91.992 133.052 C 87.524 124.234 87.84 123.449 94.705 126.317 C 129.668 140.926 189.549 138.719 234.688 121.159 C 285.141 101.531 323.944 60.256 333.379 16.179 C 337.243 -1.875 336.583 -2.037 316.745 12.089 M 339.436 106.188 C 334.932 113.477 292.888 136.66 272.665 143.006 C 238.869 153.612 177.666 154.288 120.225 144.691 C 107.554 142.573 107.25 142.989 115.748 150.822 C 186.227 215.787 311.638 193.583 340.782 110.98 C 342.66 105.659 341.755 102.437 339.436 106.188 M 118.218 189.999 C 119.946 193.386 125.546 200.632 130.663 206.103 C 179.704 258.528 255.733 265.951 296.565 222.302 C 307.783 210.31 307.838 209.126 297.004 212.898 C 249.461 229.451 207.827 224.637 139.884 194.732 C 128.453 189.701 118.196 185.192 117.089 184.713 C 115.742 184.13 116.115 185.876 118.218 189.999 M 115.356 226.658 C 115.356 230.967 130.402 251.48 139.969 260.213 C 169.053 286.764 203.504 293.533 225.843 277.087 C 234.586 270.651 234.039 270.104 219.612 270.861 C 191.718 272.325 165.362 260.775 118.178 226.409 C 115.746 224.638 115.356 224.672 115.356 226.658 M 105.55 259.948 C 115.794 293.986 153.481 320.795 173.067 307.977 L 177.474 305.094 L 168.713 303.104 C 152.562 299.436 143.128 293.176 122.571 272.488 C 103.669 253.467 103.579 253.4 105.55 259.948" stroke="none" fill-rule="evenodd" style="fill: rgb(255, 0, 0);"/>
  </g>
</svg>