<?xml version="1.0" encoding="utf-8"?>
<svg viewBox="34.19 22.636 394.572 201.653" xmlns="http://www.w3.org/2000/svg">
  <path d="M 236.991 187.802 C 238.204 199.996 240.311 211.829 243.311 223.302 C 243.409 223.676 243.128 224.042 242.741 224.042 L 219.701 224.042 C 219.168 224.042 218.968 223.786 219.101 223.272 C 222.141 211.199 224.294 199.209 225.561 187.302 C 225.584 187.057 225.333 186.879 225.109 186.981 C 225.068 187 225.031 187.028 225.001 187.062 C 218.261 194.972 207.061 199.402 196.441 198.812 C 185.508 198.212 176.771 193.492 170.231 184.652 C 161.801 173.262 162.521 156.542 167.461 143.842 C 172.911 129.802 184.981 116.592 196.621 107.212 C 207.891 98.112 219.781 88.972 230.911 79.102 C 231.078 78.956 231.244 78.956 231.411 79.102 C 240.578 87.029 249.814 94.589 259.121 101.782 C 269.801 110.036 278.651 118.689 285.671 127.742 C 293.291 137.582 297.541 148.509 298.421 160.522 C 298.928 167.396 297.968 173.469 295.541 178.742 C 290.231 190.272 279.411 197.822 266.781 198.792 C 255.621 199.642 244.761 195.662 237.611 187.532 C 237.124 186.972 236.918 187.062 236.991 187.802 Z" style=""/>
  <g id="g-1" transform="matrix(1, 0, 0, 1, 202.090973, -136.569016)"/>
  <g id="svgg" transform="matrix(0.48687, -0.071009, 0.135295, 0.539246, 167.193695, -40.543369)" style="transform-origin: 197.729px 156.627px;">
    <path id="path0" d="M 316.745 12.089 C 255.17 55.939 202.271 80.13 108.614 107.267 C 92.959 111.803 79.278 115.806 78.213 116.162 C 76.805 116.632 36.931 127.017 38.416 128.785 C 70.437 166.92 88.992 222.603 39.273 268.285 C 32.253 274.735 18.542 305.875 26.54 301.918 C 63.129 283.815 115.637 179.712 91.992 133.052 C 87.524 124.234 87.84 123.449 94.705 126.317 C 129.668 140.926 189.549 138.719 234.688 121.159 C 285.141 101.531 323.944 60.256 333.379 16.179 C 337.243 -1.875 336.583 -2.037 316.745 12.089 M 339.436 106.188 C 334.932 113.477 292.888 136.66 272.665 143.006 C 238.869 153.612 177.666 154.288 120.225 144.691 C 107.554 142.573 107.25 142.989 115.748 150.822 C 186.227 215.787 311.638 193.583 340.782 110.98 C 342.66 105.659 341.755 102.437 339.436 106.188 M 118.218 189.999 C 119.946 193.386 125.546 200.632 130.663 206.103 C 179.704 258.528 255.733 265.951 296.565 222.302 C 307.783 210.31 307.838 209.126 297.004 212.898 C 249.461 229.451 207.827 224.637 139.884 194.732 C 128.453 189.701 118.196 185.192 117.089 184.713 C 115.742 184.13 116.115 185.876 118.218 189.999 M 115.356 226.658 C 115.356 230.967 130.402 251.48 139.969 260.213 C 169.053 286.764 203.504 293.533 225.843 277.087 C 234.586 270.651 234.039 270.104 219.612 270.861 C 191.718 272.325 165.362 260.775 118.178 226.409 C 115.746 224.638 115.356 224.672 115.356 226.658 M 105.55 259.948 C 115.794 293.986 153.481 320.795 173.067 307.977 L 177.474 305.094 L 168.713 303.104 C 152.562 299.436 143.128 293.176 122.571 272.488 C 103.669 253.467 103.579 253.4 105.55 259.948" stroke="none" fill-rule="evenodd" style=""/>
  </g>
  <g id="g-2" transform="matrix(-0.48687, -0.071009, -0.135295, 0.539246, -99.850822, -40.893612)" style="transform-origin: 197.729px 156.627px;">
    <path id="path-1" d="M 316.745 12.089 C 255.17 55.939 202.271 80.13 108.614 107.267 C 92.959 111.803 79.278 115.806 78.213 116.162 C 76.805 116.632 36.931 127.017 38.416 128.785 C 70.437 166.92 88.992 222.603 39.273 268.285 C 32.253 274.735 18.542 305.875 26.54 301.918 C 63.129 283.815 115.637 179.712 91.992 133.052 C 87.524 124.234 87.84 123.449 94.705 126.317 C 129.668 140.926 189.549 138.719 234.688 121.159 C 285.141 101.531 323.944 60.256 333.379 16.179 C 337.243 -1.875 336.583 -2.037 316.745 12.089 M 339.436 106.188 C 334.932 113.477 292.888 136.66 272.665 143.006 C 238.869 153.612 177.666 154.288 120.225 144.691 C 107.554 142.573 107.25 142.989 115.748 150.822 C 186.227 215.787 311.638 193.583 340.782 110.98 C 342.66 105.659 341.755 102.437 339.436 106.188 M 118.218 189.999 C 119.946 193.386 125.546 200.632 130.663 206.103 C 179.704 258.528 255.733 265.951 296.565 222.302 C 307.783 210.31 307.838 209.126 297.004 212.898 C 249.461 229.451 207.827 224.637 139.884 194.732 C 128.453 189.701 118.196 185.192 117.089 184.713 C 115.742 184.13 116.115 185.876 118.218 189.999 M 115.356 226.658 C 115.356 230.967 130.402 251.48 139.969 260.213 C 169.053 286.764 203.504 293.533 225.843 277.087 C 234.586 270.651 234.039 270.104 219.612 270.861 C 191.718 272.325 165.362 260.775 118.178 226.409 C 115.746 224.638 115.356 224.672 115.356 226.658 M 105.55 259.948 C 115.794 293.986 153.481 320.795 173.067 307.977 L 177.474 305.094 L 168.713 303.104 C 152.562 299.436 143.128 293.176 122.571 272.488 C 103.669 253.467 103.579 253.4 105.55 259.948" stroke="none" fill-rule="evenodd" style=""/>
  </g>
</svg>